HIERARCHY
ROOT Hips
{
	OFFSET 0.000000 0.000000 0.000000
	CHANNELS 6 Xposition Yposition Zposition Xrotation Yrotation Zrotation
	JOINT LeftUpLeg_virtual
	{
		OFFSET 0.000000 0.000000 0.000000
		CHANNELS 3 Xrotation Yrotation Zrotation
		JOINT LeftUpLeg
		{
			OFFSET 10.205400 -3.823500 0.155100
			CHANNELS 3 Xrotation Yrotation Zrotation
			JOINT LeftLeg
			{
				OFFSET 0.708757 -12.982077 0.567790
				CHANNELS 3 Xrotation Yrotation Zrotation
				JOINT LeftFoot
				{
					OFFSET -0.708756 -10.717838 -2.184338
					CHANNELS 3 Xrotation Yrotation Zrotation
					JOINT LeftToeBase
					{
						OFFSET 0.108149 -7.191104 7.560241
						CHANNELS 3 Xrotation Yrotation Zrotation
						JOINT LeftToe_End
						{
							OFFSET 0.070230 0.081724 4.490308
							CHANNELS 3 Xrotation Yrotation Zrotation
							End Site
							{
								OFFSET 0 0 0
							}
						}
					}
				}
			}
		}
	}
	JOINT RightUpLeg_virtual
	{
		OFFSET 0.000000 0.000000 0.000000
		CHANNELS 3 Xrotation Yrotation Zrotation
		JOINT RightUpLeg
		{
			OFFSET -10.205400 -3.823500 0.005500
			CHANNELS 3 Xrotation Yrotation Zrotation
			JOINT RightLeg
			{
				OFFSET -0.708756 -12.982134 0.610632
				CHANNELS 3 Xrotation Yrotation Zrotation
				JOINT RightFoot
				{
					OFFSET 0.708754 -10.717769 -1.945823
					CHANNELS 3 Xrotation Yrotation Zrotation
					JOINT RightToeBase
					{
						OFFSET -0.108140 -7.191069 7.372968
						CHANNELS 3 Xrotation Yrotation Zrotation
						JOINT RightToe_End
						{
							OFFSET -0.070227 0.081735 4.479403
							CHANNELS 3 Xrotation Yrotation Zrotation
							End Site
							{
								OFFSET 0 0 0
							}
						}
					}
				}
			}
		}
	}
	JOINT Spine_virtual
	{
		OFFSET 0.000000 0.000000 0.000000
		CHANNELS 3 Xrotation Yrotation Zrotation
		JOINT Spine
		{
			OFFSET 0.000000 6.876099 0.125700
			CHANNELS 3 Xrotation Yrotation Zrotation
			JOINT Spine1
			{
				OFFSET 0.000000 5.730043 0.104720
				CHANNELS 3 Xrotation Yrotation Zrotation
				JOINT Spine1_split
				{
					OFFSET 0.000000 5.730043 0.104720
					CHANNELS 3 Xrotation Yrotation Zrotation
					JOINT Spine2
					{
						OFFSET 0.000000 5.730043 0.104720
						CHANNELS 3 Xrotation Yrotation Zrotation
						JOINT Neck_virtual
						{
							OFFSET 0.000000 0.000000 0.000000
							CHANNELS 3 Xrotation Yrotation Zrotation
							JOINT Neck
							{
								OFFSET 0.000000 10.314075 0.188496
								CHANNELS 3 Xrotation Yrotation Zrotation
								JOINT Head
								{
									OFFSET 0.000000 7.643700 -2.377400
									CHANNELS 3 Xrotation Yrotation Zrotation
									JOINT HeadTop_End
									{
										OFFSET 0.000000 43.788605 -13.619600
										CHANNELS 3 Xrotation Yrotation Zrotation
										End Site
										{
											OFFSET 0 0 0
										}
									}
								}
							}
						}
						JOINT LeftShoulder_virtual
						{
							OFFSET 0.000000 0.000000 0.000000
							CHANNELS 3 Xrotation Yrotation Zrotation
							JOINT LeftShoulder
							{
								OFFSET 2.196100 4.412489 0.087492
								CHANNELS 3 Xrotation Yrotation Zrotation
								JOINT LeftShoulder_split
								{
									OFFSET 2.196100 4.412489 0.087492
									CHANNELS 3 Xrotation Yrotation Zrotation
									JOINT LeftArm
									{
										OFFSET 8.771219 -2.981674 -0.026999
										CHANNELS 3 Xrotation Yrotation Zrotation
										JOINT LeftForeArm
										{
											OFFSET 8.512804 0.000000 -0.000000
											CHANNELS 3 Xrotation Yrotation Zrotation
											JOINT LeftHand
											{
												OFFSET 18.484802 0.000000 -0.000000
												CHANNELS 3 Xrotation Yrotation Zrotation
												End Site
												{
													OFFSET 0 0 0
												}
											}
										}
									}
								}
							}
						}
						JOINT RightShoulder_virtual
						{
							OFFSET 0.000000 0.000000 0.000000
							CHANNELS 3 Xrotation Yrotation Zrotation
							JOINT RightShoulder
							{
								OFFSET -2.196100 4.412496 0.070690
								CHANNELS 3 Xrotation Yrotation Zrotation
								JOINT RightShoulder_split
								{
									OFFSET -2.196100 4.412496 0.070690
									CHANNELS 3 Xrotation Yrotation Zrotation
									JOINT RightArm
									{
										OFFSET -8.771282 -2.981682 -0.094208
										CHANNELS 3 Xrotation Yrotation Zrotation
										JOINT RightForeArm
										{
											OFFSET -8.494598 0.000000 0.000000
											CHANNELS 3 Xrotation Yrotation Zrotation
											JOINT RightHand
											{
												OFFSET -18.483803 0.000000 0.000001
												CHANNELS 3 Xrotation Yrotation Zrotation
												End Site
												{
													OFFSET 0 0 0
												}
											}
										}
									}
								}
							}
						}
					}
				}
			}
		}
	}
}
MOTION
Frames: 10
Frame Time: 0.03333333
0.143231 30.515663 -0.011229 0.000000 0.000000 0.000000 -0.670259 -15.820562 -1.471788 -32.905652 15.727860 17.250208 59.609895 1.767455 10.541635 -27.145306 5.168811 -14.972844 -0.201334 -0.000003 -0.000001 0.000000 0.000000 0.000000 -0.670259 -15.820562 -1.471788 -25.453501 -20.282955 -13.506867 56.416355 -1.336409 -10.330242 -30.856349 -5.744678 14.252780 -0.041270 -0.000002 0.000003 0.000000 0.000000 0.000000 -0.670259 -15.820562 -1.471788 3.776657 1.219136 0.063577 2.523601 1.177439 -0.059023 0.000000 0.000000 0.000000 0.000000 0.000000 0.000000 2.503912 1.224028 -0.090937 0.457847 0.824230 4.848787 8.545303 11.130798 -0.783160 0.000000 0.000000 0.000000 2.503912 1.224028 -0.090937 0.513442 1.082370 14.986390 0.000000 0.000000 0.000000 -49.547449 -53.697168 -56.631991 -0.000008 -52.589547 0.000001 0.000000 0.000000 0.000000 2.503912 1.224028 -0.090937 0.384725 -1.325536 -0.769390 0.000000 0.000000 0.000000 -176.134159 84.807857 169.697771 0.000000 25.659950 -0.000001 0.000000 0.000000 0.000000 
0.165176 30.492340 0.002151 0.000000 0.000000 0.000000 -0.692077 -15.711978 -1.451691 -32.903801 15.547479 17.055047 59.786565 1.908971 10.536154 -27.247327 5.196928 -14.969266 -0.201735 -0.000002 -0.000000 0.000000 0.000000 0.000000 -0.692077 -15.711978 -1.451691 -25.605034 -20.669498 -13.897838 56.626722 -0.982668 -10.325086 -31.019772 -5.665791 14.152452 -0.041351 -0.000002 0.000004 0.000000 0.000000 0.000000 -0.692077 -15.711978 -1.451691 3.767823 1.181828 0.162866 2.511989 1.154432 0.015427 0.000000 0.000000 0.000000 0.000000 0.000000 0.000000 2.492559 1.203282 -0.016407 0.427322 0.835601 4.813936 8.559339 11.171114 -1.001659 0.000000 0.000000 0.000000 2.492559 1.203282 -0.016407 0.696103 0.770071 15.279886 0.000000 0.000000 0.000000 -49.162872 -53.221514 -56.426095 -0.000004 -52.964709 -0.000009 0.000000 0.000000 0.000000 2.492559 1.203282 -0.016407 0.383949 -1.340510 -0.713319 0.000000 0.000000 0.000000 -174.945037 84.873672 168.720371 0.000005 25.763205 -0.000008 0.000000 0.000000 0.000000 
0.203387 30.464546 0.018330 0.000000 0.000000 0.000000 -0.776282 -15.641169 -1.433475 -32.770397 15.315429 16.762152 59.980454 2.183102 10.525052 -27.403993 5.251857 -15.005444 -0.204019 0.000011 -0.000001 0.000000 0.000000 0.000000 -0.776282 -15.641169 -1.433475 -25.752141 -20.988883 -14.345892 56.884066 -0.600880 -10.320686 -31.172799 -5.600894 14.077681 -0.041154 0.000003 0.000004 0.000000 0.000000 0.000000 -0.776282 -15.641169 -1.433475 3.788797 1.165588 0.308021 2.524802 1.149002 0.120567 0.000000 0.000000 0.000000 0.000000 0.000000 0.000000 2.505399 1.201391 0.088318 0.385439 0.838615 4.727867 8.503754 11.082637 -1.138269 0.000000 0.000000 0.000000 2.505399 1.201391 0.088318 0.614099 0.699955 15.618218 0.000000 0.000000 0.000000 -49.322589 -52.782824 -56.988711 -0.000017 -53.012766 -0.000018 0.000000 0.000000 0.000000 2.505399 1.201391 0.088318 0.369206 -1.423143 -0.665796 0.000000 0.000000 0.000000 -174.470298 84.880748 168.433448 0.000002 25.903105 -0.000003 0.000000 0.000000 0.000000 
0.277276 30.434978 0.034151 0.000000 0.000000 0.000000 -0.903727 -15.757511 -1.388898 -32.465870 15.202860 16.386618 60.149289 2.630480 10.503246 -27.661945 5.307116 -15.065785 -0.209273 -0.000005 -0.000005 0.000000 0.000000 0.000000 -0.903727 -15.757511 -1.388898 -26.021718 -21.023090 -14.830979 57.215470 -0.224470 -10.323250 -31.211390 -5.553954 14.063313 -0.040972 0.000030 0.000003 0.000000 0.000000 0.000000 -0.903727 -15.757511 -1.388898 3.832374 1.217878 0.519155 2.560944 1.193401 0.289371 0.000000 0.000000 0.000000 0.000000 0.000000 0.000000 2.540845 1.251284 0.255827 0.335086 0.846978 4.551528 8.433189 10.901033 -1.359981 0.000000 0.000000 0.000000 2.540845 1.251284 0.255827 0.583205 0.552473 16.018153 0.000000 0.000000 0.000000 -49.494594 -52.085725 -57.569315 -0.000010 -53.080163 -0.000010 0.000000 0.000000 0.000000 2.540845 1.251284 0.255827 0.367402 -1.392478 -0.859729 0.000000 0.000000 0.000000 -173.383683 84.958845 167.419001 -0.000003 26.040316 -0.000003 0.000000 0.000000 0.000000 
0.410738 30.401646 0.042902 0.000000 0.000000 0.000000 -1.019571 -16.208976 -1.294576 -31.985038 15.251461 15.880721 60.298044 3.398425 10.464250 -28.071640 5.380859 -15.187825 -0.217740 0.000006 -0.000001 0.000000 0.000000 0.000000 -1.019571 -16.208976 -1.294576 -26.667304 -20.725728 -15.433815 57.680422 0.250107 -10.337631 -31.029566 -5.443308 14.068733 -0.041433 0.000004 0.000003 0.000000 0.000000 0.000000 -1.019571 -16.208976 -1.294576 3.909261 1.434377 0.798341 2.637588 1.358619 0.553766 0.000000 0.000000 0.000000 0.000000 0.000000 0.000000 2.614523 1.425412 0.517045 0.277044 0.864346 4.350993 8.417537 10.791365 -2.011047 0.000000 0.000000 0.000000 2.614523 1.425412 0.517045 0.558451 0.306562 16.573379 0.000000 0.000000 0.000000 -49.569797 -51.340490 -58.091900 0.000011 -53.154004 0.000006 0.000000 0.000000 0.000000 2.614523 1.425412 0.517045 0.388354 -1.213219 -1.252753 0.000000 0.000000 0.000000 -170.525344 85.204124 164.486337 0.000001 26.197623 0.000007 0.000000 0.000000 0.000000 
0.618309 30.357647 0.037157 0.000000 0.000000 0.000000 -1.033377 -16.994037 -1.100763 -31.378985 15.242085 15.036062 60.440672 4.712955 10.404772 -28.589302 5.553463 -15.459607 -0.226433 0.000008 -0.000002 0.000000 0.000000 0.000000 -1.033377 -16.994037 -1.100763 -27.920866 -20.161048 -16.279945 58.357922 0.926693 -10.364490 -30.604292 -5.221345 14.054796 -0.042945 -0.000015 -0.000004 0.000000 0.000000 0.000000 -1.033377 -16.994037 -1.100763 4.036305 1.877188 1.143371 2.770999 1.693595 0.912533 0.000000 0.000000 0.000000 0.000000 0.000000 0.000000 2.741003 1.773028 0.870629 0.241622 0.866780 4.296857 8.310411 10.946051 -3.577088 0.000000 0.000000 0.000000 2.741003 1.773028 0.870629 0.489667 -0.066764 17.301303 0.000000 0.000000 0.000000 -49.490195 -50.804600 -58.332930 0.000005 -53.235782 0.000003 0.000000 0.000000 0.000000 2.741003 1.773028 0.870629 0.396861 -1.137169 -1.438916 0.000000 0.000000 0.000000 -165.471305 85.441596 159.256201 0.000003 26.489832 -0.000013 0.000000 0.000000 0.000000 
0.884164 30.298870 0.014097 0.000000 0.000000 0.000000 -0.843202 -17.851193 -0.735328 -30.845674 14.860333 13.604822 60.587979 6.334131 10.340177 -29.009265 6.126076 -15.731754 -0.230023 -0.000004 0.000001 0.000000 0.000000 0.000000 -0.843202 -17.851193 -0.735328 -29.734989 -19.394797 -17.382671 59.250791 1.708796 -10.396258 -30.053727 -4.996176 14.078530 -0.043637 -0.000013 -0.000001 0.000000 0.000000 0.000000 -0.843202 -17.851193 -0.735328 4.210982 2.377705 1.584340 2.945457 2.071076 1.314015 0.000000 0.000000 0.000000 0.000000 0.000000 0.000000 2.907238 2.163087 1.267597 0.278768 0.848931 4.465466 7.694690 11.474679 -6.223101 0.000000 0.000000 0.000000 2.907238 2.163087 1.267597 0.321499 -0.334171 18.005214 0.000000 0.000000 0.000000 -49.373030 -50.599892 -58.171560 0.000015 -53.246461 0.000029 0.000000 0.000000 0.000000 2.907238 2.163087 1.267597 0.350301 -1.394147 -1.265368 0.000000 0.000000 0.000000 -159.461339 85.299719 153.005062 0.000003 27.058865 0.000006 0.000000 0.000000 0.000000 
1.156905 30.237503 -0.022850 0.000000 0.000000 0.000000 -0.443151 -18.376564 -0.269505 -30.738375 14.129587 11.668565 60.879634 6.523549 10.326756 -29.131020 8.144415 -15.055081 -0.229215 -0.000005 -0.000002 0.000000 0.000000 0.000000 -0.443151 -18.376564 -0.269505 -31.567133 -18.570174 -18.469234 60.073269 2.280145 -10.409258 -29.527570 -4.929381 14.267833 -0.042351 0.000017 -0.000009 0.000000 0.000000 0.000000 -0.443151 -18.376564 -0.269505 4.426818 2.458864 2.149009 3.139673 2.120680 1.686251 0.000000 0.000000 0.000000 0.000000 0.000000 0.000000 3.104350 2.216923 1.640159 0.457791 0.916548 4.711777 6.469072 12.570973 -8.927737 0.000000 0.000000 0.000000 3.104350 2.216923 1.640159 -0.215478 0.196735 18.405743 0.000000 0.000000 0.000000 -49.675249 -50.611763 -58.351474 -0.000002 -52.891633 0.000006 0.000000 0.000000 0.000000 3.104350 2.216923 1.640159 0.289398 -1.663589 -1.378872 0.000000 0.000000 0.000000 -152.956390 84.622356 146.244049 -0.000005 27.936020 0.000007 0.000000 0.000000 0.000000 
1.371217 30.202827 -0.071398 0.000000 0.000000 0.000000 -0.032687 -18.207947 -0.069930 -31.296460 12.854588 11.136652 61.463295 6.654731 8.704215 -29.230850 8.423537 -13.924553 -0.229634 0.000001 -0.000005 0.000000 0.000000 0.000000 -0.032687 -18.207947 -0.069930 -32.450686 -18.120033 -19.004341 60.200386 2.269728 -10.409344 -29.069715 -5.058685 14.732045 -0.038311 -0.000008 0.000005 0.000000 0.000000 0.000000 -0.032687 -18.207947 -0.069930 4.630301 1.671359 2.704271 3.302712 1.494120 1.929105 0.000000 0.000000 0.000000 0.000000 0.000000 0.000000 3.288199 1.577601 1.892835 0.911771 1.124047 5.142382 5.703006 14.274441 -9.475790 0.000000 0.000000 0.000000 3.288199 1.577601 1.892835 -1.210706 1.688106 18.621496 0.000000 0.000000 0.000000 -50.688033 -50.715842 -59.662495 0.000001 -51.859676 -0.000007 0.000000 0.000000 0.000000 3.288199 1.577601 1.892835 0.313448 -1.393210 -2.159959 0.000000 0.000000 0.000000 -145.614756 83.787857 138.813240 -0.000006 28.875434 -0.000000 0.000000 0.000000 0.000000 
1.476519 30.201763 -0.126268 0.000000 0.000000 0.000000 0.063843 -16.991277 -0.650267 -32.740461 11.616991 11.873194 62.543216 7.088630 7.580645 -29.226936 6.906071 -13.413944 -0.241270 0.000002 0.000001 0.000000 0.000000 0.000000 0.063843 -16.991277 -0.650267 -31.407710 -18.767879 -18.592748 59.072735 1.523793 -10.339524 -28.752187 -5.280473 15.440529 -0.032073 0.000011 0.000005 0.000000 0.000000 0.000000 0.063843 -16.991277 -0.650267 4.687062 0.096582 2.849325 3.322683 0.272420 1.838301 0.000000 0.000000 0.000000 0.000000 0.000000 0.000000 3.326689 0.328977 1.823289 1.737769 1.133116 6.374964 7.469987 15.341619 -5.728342 0.000000 0.000000 0.000000 3.326689 0.328977 1.823289 -2.134303 2.878661 19.354985 0.000000 0.000000 0.000000 -51.993736 -51.443178 -61.422819 -0.000002 -50.213693 -0.000001 0.000000 0.000000 0.000000 3.326689 0.328977 1.823289 0.416897 -0.855568 -2.503044 0.000000 0.000000 0.000000 -136.907454 83.494555 130.577958 0.000001 29.326828 -0.000001 0.000000 0.000000 0.000000 
